<?xml version="1.0" standalone="no"?>
<!DOCTYPE svg PUBLIC "-//W3C//DTD SVG 20010904//EN"
 "http://www.w3.org/TR/2001/REC-SVG-20010904/DTD/svg10.dtd">
<svg version="1.0" xmlns="http://www.w3.org/2000/svg"
 width="385.000000pt" height="115.000000pt" viewBox="0 0 385.000000 115.000000"
 preserveAspectRatio="xMidYMid meet">
<metadata>
Created by potrace 1.15, written by Peter Selinger 2001-2017
</metadata>
<g transform="translate(0.000000,115.000000) scale(0.100000,-0.100000)"
fill="#000000" stroke="none">
<path d="M0 575 l0 -575 1925 0 1925 0 0 575 0 575 -1925 0 -1925 0 0 -575z
m710 436 c110 -42 218 -149 261 -258 34 -84 34 -252 0 -336 -43 -109 -151
-216 -261 -258 -78 -31 -203 -37 -286 -14 -124 33 -242 133 -294 248 -15 34
-26 64 -24 66 2 2 40 -11 85 -30 65 -27 86 -41 104 -69 31 -50 49 -62 98 -67
72 -8 137 42 137 106 0 25 141 126 190 136 85 17 142 85 142 170 0 105 -91
179 -200 161 -63 -10 -132 -80 -132 -134 0 -34 -108 -192 -131 -192 -10 0 -29
-5 -42 -11 -20 -9 -42 -3 -138 36 -63 26 -118 51 -123 56 -6 5 -5 29 3 61 35
158 153 288 309 339 77 26 223 21 302 -10z m40 -206 c37 -19 60 -62 60 -111 0
-28 -8 -44 -34 -70 -29 -29 -41 -34 -81 -34 -40 0 -52 5 -81 34 -26 26 -34 42
-34 70 0 50 23 90 62 109 41 21 71 21 108 2z m682 -55 c47 -13 54 -25 34 -54
-14 -23 -17 -23 -55 -10 -45 15 -91 5 -91 -20 0 -19 15 -29 83 -56 65 -25 87
-50 87 -95 0 -80 -100 -127 -201 -94 -47 16 -52 22 -38 53 9 18 18 25 28 21
31 -13 80 -17 106 -11 20 5 26 12 23 29 -2 16 -17 28 -58 44 -76 30 -100 53
-100 98 0 48 15 74 53 90 39 17 79 18 129 5z m388 -30 c0 -29 -1 -30 -50 -30
l-50 0 0 -135 0 -135 -35 0 -35 0 0 135 0 135 -55 0 c-54 0 -55 0 -55 30 l0
30 140 0 140 0 0 -30z m300 0 l0 -30 -80 0 -80 0 0 -35 0 -35 64 0 c60 0 64
-1 68 -25 3 -13 3 -27 0 -30 -3 -3 -34 -5 -69 -5 l-63 0 0 -40 0 -40 80 0 80
0 0 -30 0 -30 -115 0 -115 0 0 165 0 165 115 0 115 0 0 -30z m293 -75 c21 -55
49 -128 62 -162 l24 -63 -40 0 c-36 0 -40 3 -45 30 -6 30 -7 30 -74 30 -67 0
-68 -1 -79 -30 -8 -26 -15 -30 -45 -30 -20 0 -36 2 -36 5 0 2 23 67 51 142 29
76 56 148 60 161 8 19 15 23 46 20 37 -3 37 -3 76 -103z m272 -6 c27 -61 53
-113 57 -115 5 -3 17 16 29 43 73 172 80 183 115 183 l34 0 0 -165 0 -165 -35
0 -35 0 0 98 0 97 -45 -92 c-32 -67 -49 -93 -62 -93 -13 0 -32 26 -65 93 l-47
92 0 -97 -1 -98 -30 0 -30 0 0 165 0 165 33 0 c31 0 33 -3 82 -111z m517 -24
c26 -71 51 -137 54 -145 8 -21 13 -10 69 148 38 105 51 132 66 132 18 0 17 -4
-7 -67 -14 -38 -42 -112 -62 -165 -31 -83 -40 -98 -58 -98 -19 0 -29 17 -70
123 -25 67 -53 137 -60 156 -18 44 -18 53 2 49 11 -2 33 -47 66 -133z m467
120 c34 -17 41 -33 41 -87 0 -31 -7 -46 -30 -70 l-31 -30 40 -64 c34 -55 38
-64 22 -64 -12 0 -33 23 -60 65 -40 64 -41 65 -86 65 l-45 0 0 -65 c0 -51 -3
-65 -15 -65 -13 0 -15 25 -15 165 l0 165 75 0 c47 0 87 -6 104 -15z"/>
<path d="M665 780 c-87 -34 -57 -161 38 -160 39 1 77 45 77 89 0 46 -70 89
-115 71z"/>
<path d="M3520 650 l0 -70 59 0 c52 0 62 3 80 26 26 34 27 68 1 94 -16 16 -33
20 -80 20 l-60 0 0 -70z"/>
</g>
</svg>
